<?xml version="1.0" encoding="utf-8"?>
<!-- Generator: Adobe Illustrator 28.0.0, SVG Export Plug-In . SVG Version: 6.00 Build 0)  -->
<svg version="1.1" id="Слой_1" xmlns="http://www.w3.org/2000/svg" xmlns:xlink="http://www.w3.org/1999/xlink" x="0px" y="0px"
	 viewBox="0 0 999.8223267 1000" enable-background="new 0 0 999.8223267 1000" xml:space="preserve">
<path fill="#F7931A" d="M984.875061,620.897522c-66.7424316,267.8480225-338.1032715,430.8986206-605.9512939,364.156189
	S-51.9748497,646.9505005,15.0603189,379.102478C81.8027802,111.2544785,353.1636047-51.7961617,621.0115967,14.9462795
	C888.5668945,81.6887436,1051.6174316,353.04953,984.875061,620.897522z"/>
<path fill="#FFFFFF" d="M720.2470703,428.5738525c9.9528198-66.449707-40.6894531-102.1627808-110.0665283-126.166687
	l22.5402832-90.1608582l-54.7406006-13.7583008l-21.9547119,87.8190002
	c-14.34375-3.5127258-29.2730103-7.0254822-43.9095459-10.2455444l21.9547729-88.4044647l-54.7405701-13.7583008
	l-22.5402527,90.1608734c-12.0019531-2.634552-23.7111511-5.269165-35.127594-8.1964569v-0.2927551l-75.5243225-19.0274506
	l-14.6365051,58.5460205c0,0,40.6894531,9.3673401,39.8113098,9.9527893
	c22.2474976,5.5618591,26.3457031,20.1983643,25.4675598,31.9075623l-25.4675598,102.748291
	c1.4636536,0.2927246,3.5127869,0.8781738,5.5618591,1.7563782c-1.7564087-0.5854492-3.8054504-0.8782043-5.8546143-1.4636536
	l-35.7130127,144.0232544c-2.634552,6.7327881-9.6600647,16.9783325-25.1748047,13.1728516
	c0.5855103,0.8781738-39.8113098-9.9528198-39.8113098-9.9528198l-27.2238617,62.9369507l71.4261322,17.8565674
	c13.1728516,3.2200317,26.3457031,6.7327271,39.2257996,9.9528198l-22.8329163,91.0390625l54.7405701,13.7583618
	l22.5402527-90.1608276c14.9292603,4.0982056,29.5657654,7.9037476,43.6167603,11.4164429L429.273407,793.901123
	l54.7405701,13.7583618l22.8328857-91.0390625c93.673645,17.5637817,163.928833,10.538269,193.4946289-74.0606689
	c24.0039062-68.2061157-1.1708984-107.4319458-50.3496094-132.8994446
	C685.9977417,500.8782043,712.928833,477.4598083,720.2470703,428.5738525L720.2470703,428.5738525z M594.9586182,604.5046387
	c-16.9782715,68.2060547-131.7285156,31.3221436-168.9052429,21.9547729l30.1511536-120.8975525
	C493.3812866,514.9291992,612.5224609,533.3712158,594.9586182,604.5046387z M611.9369507,427.6957092
	c-15.5146484,62.0587463-110.9446716,30.4439087-141.9740906,22.8329468l27.223877-109.4810791
	C528.2161255,348.6585693,628.0371094,363.0023193,611.9369507,427.6957092z"/>
</svg>
